<svg width="16" height="16" viewBox="0 0 16 16" fill="none" xmlns="http://www.w3.org/2000/svg">
<g clip-path="url(#clip0_1_242)">
<path fill-rule="evenodd" clip-rule="evenodd" d="M6.1378 2.12119C5.96972 2.17444 5.80372 2.23496 5.64028 2.30266C4.89211 2.61257 4.2123 3.0668 3.63967 3.63943C3.06704 4.21205 2.61281 4.89186 2.30291 5.64004C2.05696 6.2338 1.90574 6.86138 1.8538 7.49992H4.84079C4.86212 6.76932 4.93015 6.04932 5.04321 5.36697C5.18183 4.53031 5.38664 3.75935 5.65031 3.10018C5.79426 2.7403 5.9569 2.41086 6.1378 2.12119ZM8.00016 0.833252C7.05902 0.833252 6.1271 1.01862 5.2576 1.37878C4.3881 1.73894 3.59805 2.26683 2.93256 2.93232C2.26708 3.59781 1.73919 4.38785 1.37903 5.25735C1.01887 6.12685 0.833496 7.05878 0.833496 7.99992C0.833496 8.94106 1.01887 9.87298 1.37903 10.7425C1.73918 11.612 2.26708 12.402 2.93256 13.0675C3.59805 13.733 4.3881 14.2609 5.2576 14.6211C6.1271 14.9812 7.05902 15.1666 8.00016 15.1666C8.9413 15.1666 9.87323 14.9812 10.7427 14.6211C11.6122 14.2609 12.4023 13.733 13.0678 13.0675C13.7332 12.402 14.2611 11.612 14.6213 10.7425C14.9815 9.87298 15.1668 8.94106 15.1668 7.99992C15.1668 7.05878 14.9815 6.12686 14.6213 5.25736C14.2611 4.38786 13.7332 3.59781 13.0678 2.93232C12.4023 2.26683 11.6122 1.73894 10.7427 1.37878C9.87323 1.01862 8.9413 0.833252 8.00016 0.833252ZM8.00016 1.83325C7.82599 1.83325 7.60098 1.91711 7.33934 2.18805C7.07577 2.46099 6.81191 2.88876 6.57878 3.47157C6.34721 4.05052 6.15916 4.74941 6.02976 5.53042C5.92594 6.15704 5.86227 6.822 5.84124 7.49992L10.1591 7.49992C10.1381 6.822 10.0744 6.15705 9.97057 5.53043C9.84116 4.74941 9.65312 4.05052 9.42154 3.47157C9.18842 2.88876 8.92455 2.46099 8.66098 2.18805C8.39934 1.91711 8.17434 1.83325 8.00016 1.83325ZM11.1595 7.49992C11.1382 6.76932 11.0702 6.04932 10.9571 5.36697C10.8185 4.53031 10.6137 3.75935 10.35 3.10018C10.2061 2.7403 10.0434 2.41086 9.86252 2.12119C10.0306 2.17444 10.1966 2.23496 10.36 2.30266C11.1082 2.61257 11.788 3.0668 12.3607 3.63943C12.9333 4.21206 13.3875 4.89186 13.6974 5.64004C13.9434 6.2338 14.0946 6.86138 14.1465 7.49992H11.1595ZM10.1591 8.49992L5.84124 8.49992C5.86227 9.17783 5.92594 9.84279 6.02976 10.4694C6.15916 11.2504 6.3472 11.9493 6.57878 12.5283C6.81191 13.1111 7.07577 13.5388 7.33934 13.8118C7.60098 14.0827 7.82599 14.1666 8.00016 14.1666C8.17434 14.1666 8.39934 14.0827 8.66098 13.8118C8.92455 13.5388 9.18842 13.1111 9.42154 12.5283C9.65312 11.9493 9.84116 11.2504 9.97057 10.4694C10.0744 9.84279 10.1381 9.17783 10.1591 8.49992ZM9.86252 13.8786C10.0434 13.589 10.2061 13.2595 10.35 12.8997C10.6137 12.2405 10.8185 11.4695 10.9571 10.6329C11.0702 9.95052 11.1382 9.23052 11.1595 8.49992H14.1465C14.0946 9.13845 13.9434 9.76604 13.6974 10.3598C13.3875 11.108 12.9333 11.7878 12.3607 12.3604C11.788 12.933 11.1082 13.3873 10.36 13.6972C10.1966 13.7649 10.0306 13.8254 9.86252 13.8786ZM6.1378 13.8786C5.9569 13.589 5.79426 13.2595 5.65031 12.8997C5.38664 12.2405 5.18183 11.4695 5.04321 10.6329C4.93015 9.95052 4.86212 9.23052 4.84079 8.49992H1.8538C1.90574 9.13845 2.05696 9.76604 2.30291 10.3598C2.61281 11.108 3.06704 11.7878 3.63967 12.3604C4.2123 12.933 4.89211 13.3873 5.64028 13.6972C5.80372 13.7649 5.96972 13.8254 6.1378 13.8786Z" fill="black"/>
</g>
<defs>
<clipPath id="clip0_1_242">
<rect width="16" height="16" fill="white"/>
</clipPath>
</defs>
</svg>
