<svg width="20" height="20" viewBox="0 0 20 20" fill="none" xmlns="http://www.w3.org/2000/svg">
<path d="M13.797 10.7552L13.4174 11.1326C13.4174 11.1326 12.5153 12.0296 10.0528 9.58111C7.59026 7.13259 8.49242 6.23556 8.49242 6.23556L8.73143 5.9979C9.32022 5.41245 9.37573 4.47251 8.86203 3.78632L7.81121 2.38265C7.1754 1.53335 5.94679 1.42115 5.21804 2.14577L3.91004 3.44635C3.54869 3.80564 3.30654 4.27141 3.3359 4.78809C3.41103 6.10993 4.00909 8.95396 7.3463 12.2722C10.8853 15.7911 14.2059 15.9309 15.5637 15.8044C15.9932 15.7643 16.3668 15.5456 16.6678 15.2463L17.8516 14.0692C18.6506 13.2747 18.4253 11.9125 17.4029 11.3567L15.8108 10.4913C15.1395 10.1263 14.3216 10.2335 13.797 10.7552Z" fill="black"/>
</svg>
