<svg width="20" height="20" viewBox="0 0 20 20" fill="none" xmlns="http://www.w3.org/2000/svg">
<path fill-rule="evenodd" clip-rule="evenodd" d="M2.64281 4.30956C1.6665 5.28587 1.6665 6.85722 1.6665 9.99992C1.6665 13.1426 1.6665 14.714 2.64281 15.6903C3.61913 16.6666 5.19047 16.6666 8.33317 16.6666H11.6665C14.8092 16.6666 16.3805 16.6666 17.3569 15.6903C18.3332 14.714 18.3332 13.1426 18.3332 9.99992C18.3332 6.85722 18.3332 5.28587 17.3569 4.30956C16.3805 3.33325 14.8092 3.33325 11.6665 3.33325H8.33317C5.19047 3.33325 3.61913 3.33325 2.64281 4.30956ZM15.48 6.26647C15.701 6.53164 15.6651 6.92575 15.4 7.14672L13.5696 8.67206C12.8309 9.28761 12.2322 9.78652 11.7039 10.1264C11.1534 10.4804 10.6174 10.704 9.99984 10.704C9.38227 10.704 8.84623 10.4804 8.29582 10.1264C7.76743 9.78652 7.16876 9.28761 6.43013 8.67207L4.59972 7.14672C4.33455 6.92575 4.29872 6.53164 4.5197 6.26647C4.74068 6.0013 5.13478 5.96547 5.39995 6.18645L7.19903 7.68568C7.9765 8.33357 8.51628 8.78193 8.97199 9.07503C9.41312 9.35874 9.71228 9.45398 9.99984 9.45398C10.2874 9.45398 10.5866 9.35874 11.0277 9.07503C11.4834 8.78193 12.0232 8.33357 12.8006 7.68568L14.5997 6.18645C14.8649 5.96547 15.259 6.0013 15.48 6.26647Z" fill="black"/>
</svg>
