<svg width="18" height="14" viewBox="0 0 18 14" fill="none" xmlns="http://www.w3.org/2000/svg">
<path fill-rule="evenodd" clip-rule="evenodd" d="M1.64281 1.30962C0.666504 2.28593 0.666504 3.85728 0.666504 6.99998C0.666504 10.1427 0.666504 11.714 1.64281 12.6903C2.61913 13.6666 4.19047 13.6666 7.33317 13.6666H10.6665C13.8092 13.6666 15.3805 13.6666 16.3569 12.6903C17.3332 11.714 17.3332 10.1427 17.3332 6.99998C17.3332 3.85728 17.3332 2.28593 16.3569 1.30962C15.3805 0.333313 13.8092 0.333313 10.6665 0.333313H7.33317C4.19047 0.333313 2.61913 0.333313 1.64281 1.30962ZM14.48 3.26653C14.701 3.5317 14.6651 3.92581 14.4 4.14678L12.5696 5.67212C11.8309 6.28767 11.2322 6.78658 10.7039 7.12642C10.1534 7.48042 9.6174 7.70404 8.99984 7.70404C8.38227 7.70404 7.84623 7.48042 7.29582 7.12642C6.76743 6.78658 6.16876 6.28767 5.43013 5.67213L3.59972 4.14678C3.33455 3.92581 3.29872 3.5317 3.5197 3.26653C3.74068 3.00136 4.13478 2.96553 4.39995 3.18651L6.19903 4.68574C6.9765 5.33363 7.51628 5.78199 7.97199 6.07509C8.41312 6.3588 8.71228 6.45404 8.99984 6.45404C9.2874 6.45404 9.58655 6.3588 10.0277 6.07509C10.4834 5.78199 11.0232 5.33363 11.8006 4.68574L13.5997 3.18651C13.8649 2.96553 14.259 3.00136 14.48 3.26653Z" fill="#FF3583"/>
</svg>
