<svg width="41" height="40" viewBox="0 0 41 40" fill="none" xmlns="http://www.w3.org/2000/svg">
<rect x="7.0459" y="4.33807" width="25.9665" height="31.3223" rx="2" fill="url(#paint0_linear_1_431)"/>
<path d="M25.9007 37.9162H15.9007C8.55072 37.9162 6.31738 35.6828 6.31738 28.3328V11.6662C6.31738 4.31616 8.55072 2.08282 15.9007 2.08282H25.9007C33.2507 2.08282 35.484 4.31616 35.484 11.6662V28.3328C35.484 35.6828 33.2507 37.9162 25.9007 37.9162ZM15.9007 4.58282C9.93405 4.58282 8.81738 5.71616 8.81738 11.6662V28.3328C8.81738 34.2828 9.93405 35.4162 15.9007 35.4162H25.9007C31.8674 35.4162 32.984 34.2828 32.984 28.3328V11.6662C32.984 5.71616 31.8674 4.58282 25.9007 4.58282H15.9007Z" fill="black"/>
<path d="M24.234 10.4172H17.5674C16.884 10.4172 16.3174 9.85051 16.3174 9.16718C16.3174 8.48384 16.884 7.91718 17.5674 7.91718H24.234C24.9174 7.91718 25.484 8.48384 25.484 9.16718C25.484 9.85051 24.9174 10.4172 24.234 10.4172Z" fill="black"/>
<path d="M20.8988 33.0994C18.7821 33.0994 17.0654 31.3827 17.0654 29.2661C17.0654 27.1494 18.7821 25.4327 20.8988 25.4327C23.0154 25.4327 24.7321 27.1494 24.7321 29.2661C24.7321 31.3827 23.0154 33.0994 20.8988 33.0994ZM20.8988 27.9161C20.1654 27.9161 19.5654 28.5161 19.5654 29.2494C19.5654 29.9827 20.1654 30.5827 20.8988 30.5827C21.6321 30.5827 22.2321 29.9827 22.2321 29.2494C22.2321 28.5161 21.6321 27.9161 20.8988 27.9161Z" fill="black"/>
<defs>
<linearGradient id="paint0_linear_1_431" x1="20.0291" y1="4.33807" x2="20.0291" y2="35.6604" gradientUnits="userSpaceOnUse">
<stop stop-color="#FF3583"/>
<stop offset="1" stop-color="white" stop-opacity="0"/>
</linearGradient>
</defs>
</svg>
