<svg width="41" height="40" viewBox="0 0 41 40" fill="none" xmlns="http://www.w3.org/2000/svg">
<ellipse cx="20.3695" cy="20.0947" rx="17.4862" ry="17.8219" fill="url(#paint0_linear_1_440)"/>
<path d="M20.8 37.9158C10.9166 37.9158 2.8833 29.8825 2.8833 19.9991C2.8833 10.1158 10.9166 2.08246 20.8 2.08246C30.6833 2.08246 38.7166 10.1158 38.7166 19.9991C38.7166 29.8825 30.6833 37.9158 20.8 37.9158ZM20.8 4.58246C12.3 4.58246 5.3833 11.4991 5.3833 19.9991C5.3833 28.4991 12.3 35.4158 20.8 35.4158C29.3 35.4158 36.2166 28.4991 36.2166 19.9991C36.2166 11.4991 29.3 4.58246 20.8 4.58246Z" fill="black"/>
<path d="M20.8003 26.0504C18.6003 26.0504 16.8003 24.2503 16.8003 22.0503V17.9337C16.8003 15.7337 18.6003 13.9337 20.8003 13.9337C23.0003 13.9337 24.8003 15.7337 24.8003 17.9337V22.0503C24.8003 24.267 23.0003 26.0504 20.8003 26.0504ZM20.8003 16.4503C19.9836 16.4503 19.3003 17.117 19.3003 17.9504V22.067C19.3003 22.9003 19.9669 23.567 20.8003 23.567C21.6336 23.567 22.3003 22.9003 22.3003 22.067V17.9504C22.3003 17.117 21.6169 16.4503 20.8003 16.4503Z" fill="black"/>
<path d="M20.7996 31.3664C15.5163 31.3664 11.2163 27.0664 11.2163 21.7831V18.2164C11.2163 12.9331 15.5163 8.63306 20.7996 8.63306C25.733 8.63306 29.833 12.3331 30.333 17.2331C30.3996 17.9164 29.8997 18.533 29.2163 18.5997C28.533 18.683 27.9163 18.1664 27.8496 17.4831C27.483 13.8664 24.4496 11.1331 20.7996 11.1331C16.8996 11.1331 13.7163 14.3164 13.7163 18.2164V21.7831C13.7163 25.6831 16.8996 28.8664 20.7996 28.8664C24.4663 28.8664 27.5663 25.9997 27.8663 22.3497C27.9163 21.6664 28.5163 21.1497 29.2163 21.1997C29.8997 21.2497 30.4163 21.8498 30.3663 22.5498C29.9663 27.4998 25.7663 31.3664 20.7996 31.3664Z" fill="black"/>
<defs>
<linearGradient id="paint0_linear_1_440" x1="20.3695" y1="2.27289" x2="20.3695" y2="37.9166" gradientUnits="userSpaceOnUse">
<stop stop-color="#FF3583"/>
<stop offset="1" stop-color="white" stop-opacity="0"/>
</linearGradient>
</defs>
</svg>
