<svg width="30" height="40" viewBox="0 0 30 40" fill="none" xmlns="http://www.w3.org/2000/svg">
<rect x="3.41479" y="2.15131" width="23.1699" height="34.3406" rx="3" fill="url(#paint0_linear_1_470)"/>
<path fill-rule="evenodd" clip-rule="evenodd" d="M14.9225 3.30715e-07H15.0773C17.6246 -1.61922e-05 19.6431 -2.93814e-05 21.2549 0.163937C22.9063 0.331933 24.285 0.683522 25.491 1.48934C26.4559 2.13409 27.2844 2.96258 27.9292 3.92752C28.735 5.13351 29.0866 6.51219 29.2546 8.16362C29.4185 9.77544 29.4185 11.7939 29.4185 14.3412V25.6588C29.4185 28.2061 29.4185 30.2246 29.2546 31.8364C29.0866 33.4878 28.735 34.8665 27.9292 36.0725C27.2844 37.0374 26.4559 37.8659 25.491 38.5107C24.285 39.3165 22.9063 39.6681 21.2549 39.8361C19.6431 40 17.6246 40 15.0772 40H14.9226C12.3752 40 10.3568 40 8.74492 39.8361C7.09349 39.6681 5.71481 39.3165 4.50882 38.5107C3.54388 37.8659 2.71539 37.0374 2.07064 36.0725C1.26482 34.8665 0.913232 33.4878 0.745236 31.8364C0.581269 30.2246 0.581283 28.2061 0.581299 25.6588V14.3412C0.581283 11.7939 0.581269 9.77544 0.745236 8.16362C0.913232 6.51219 1.26482 5.13351 2.07064 3.92752C2.71539 2.96258 3.54388 2.13409 4.50882 1.48934C5.71481 0.683522 7.09349 0.331933 8.74492 0.163937C10.3567 -2.93814e-05 12.3752 -1.61922e-05 14.9225 3.30715e-07ZM9.02735 2.94031C7.59658 3.08586 6.73027 3.36136 6.05925 3.80972C5.39903 4.25086 4.83216 4.81773 4.39102 5.47795C3.94266 6.14897 3.66715 7.01528 3.52161 8.44605C3.37368 9.90015 3.372 11.7766 3.372 14.4186V25.5814C3.372 28.2234 3.37368 30.0999 3.52161 31.5539C3.66715 32.9847 3.94266 33.851 4.39102 34.5221C4.83216 35.1823 5.39903 35.7491 6.05925 36.1903C6.73027 36.6386 7.59658 36.9141 9.02735 37.0597C10.4814 37.2076 12.3579 37.2093 14.9999 37.2093C17.6419 37.2093 19.5184 37.2076 20.9725 37.0597C22.4032 36.9141 23.2695 36.6386 23.9406 36.1903C24.6008 35.7491 25.1676 35.1823 25.6088 34.5221C26.0572 33.851 26.3327 32.9847 26.4782 31.5539C26.6261 30.0999 26.6278 28.2234 26.6278 25.5814V14.4186C26.6278 11.7766 26.6261 9.90015 26.4782 8.44605C26.3327 7.01528 26.0572 6.14897 25.6088 5.47795C25.1676 4.81773 24.6008 4.25086 23.9406 3.80972C23.2695 3.36136 22.4032 3.08586 20.9725 2.94031C19.5184 2.79239 17.6419 2.7907 14.9999 2.7907C12.3579 2.7907 10.4814 2.79239 9.02735 2.94031ZM14.9999 13.9535C12.688 13.9535 10.8139 15.8276 10.8139 18.1395C10.8139 20.4514 12.688 22.3256 14.9999 22.3256C17.3118 22.3256 19.1859 20.4514 19.1859 18.1395C19.1859 15.8276 17.3118 13.9535 14.9999 13.9535ZM8.02316 18.1395C8.02316 14.2864 11.1468 11.1628 14.9999 11.1628C18.8531 11.1628 21.9766 14.2864 21.9766 18.1395C21.9766 21.9927 18.8531 25.1163 14.9999 25.1163C11.1468 25.1163 8.02316 21.9927 8.02316 18.1395Z" fill="black"/>
<path d="M16.8604 6.97675C16.8604 8.00425 16.0274 8.83721 14.9999 8.83721C13.9724 8.83721 13.1394 8.00425 13.1394 6.97675C13.1394 5.94924 13.9724 5.11628 14.9999 5.11628C16.0274 5.11628 16.8604 5.94924 16.8604 6.97675Z" fill="black"/>
<path d="M16.8604 29.3023C16.8604 30.3298 16.0274 31.1628 14.9999 31.1628C13.9724 31.1628 13.1394 30.3298 13.1394 29.3023C13.1394 28.2748 13.9724 27.4419 14.9999 27.4419C16.0274 27.4419 16.8604 28.2748 16.8604 29.3023Z" fill="black"/>
<defs>
<linearGradient id="paint0_linear_1_470" x1="14.9998" y1="2.15131" x2="14.9998" y2="36.492" gradientUnits="userSpaceOnUse">
<stop stop-color="#FF3583"/>
<stop offset="1" stop-color="white" stop-opacity="0"/>
</linearGradient>
</defs>
</svg>
