<svg width="41" height="40" viewBox="0 0 41 40" fill="none" xmlns="http://www.w3.org/2000/svg">
<path d="M29.1581 4.56384L35.5524 10.111L36.4 16.2743L33.6265 22.2836L27.4631 25.3654L23.6109 24.9801L14.5772 32.5305L7.81734 31.914L8.43368 26.2129L15.9066 18.2775L15.2132 14.8106L15.9068 10.1111L21.2996 4.56369L29.1581 4.56384Z" fill="url(#paint0_linear_1_450)"/>
<path d="M13.655 34.0296C13.5085 34.0296 13.3474 34.0149 13.2156 34.0003L10.0367 33.5608C8.51325 33.3557 7.13625 31.9934 6.90186 30.4406L6.46239 27.2325C6.3159 26.207 6.75537 24.874 7.48782 24.1269L13.9187 17.696C12.8786 13.5357 14.0799 9.14099 17.1415 6.10865C21.8878 1.37703 29.6078 1.36239 34.3687 6.10865C36.6686 8.40854 37.9284 11.4702 37.9284 14.7222C37.9284 17.9743 36.6686 21.0359 34.3687 23.3358C31.2924 26.3828 26.9123 27.584 22.7813 26.5293L16.3358 32.9602C15.7205 33.6048 14.6219 34.0296 13.655 34.0296ZM25.7404 4.7463C23.1769 4.7463 20.6279 5.71313 18.6796 7.66144C16.0428 10.2836 15.0906 14.1216 16.1893 17.696C16.3065 18.0915 16.204 18.5017 15.911 18.7947L9.02596 25.6797C8.77693 25.9287 8.57184 26.5733 8.61579 26.9102L9.05526 30.1183C9.14315 30.675 9.74376 31.3049 10.3004 31.3781L13.4939 31.8176C13.8455 31.8762 14.49 31.6711 14.7391 31.4221L21.6534 24.5224C21.9464 24.2294 22.3712 24.1415 22.752 24.2587C26.2824 25.372 30.1351 24.4199 32.7719 21.783C34.647 19.908 35.6871 17.3884 35.6871 14.7222C35.6871 12.0415 34.647 9.53651 32.7719 7.66144C30.8676 5.72778 28.304 4.7463 25.7404 4.7463Z" fill="black"/>
<path d="M18.0644 30.7926C17.786 30.7926 17.5077 30.69 17.288 30.4703L13.9187 27.101C13.4939 26.6762 13.4939 25.973 13.9187 25.5482C14.3435 25.1234 15.0467 25.1234 15.4715 25.5482L18.8408 28.9175C19.2656 29.3423 19.2656 30.0455 18.8408 30.4703C18.621 30.69 18.3427 30.7926 18.0644 30.7926Z" fill="black"/>
<path d="M25.8429 17.9169C24.0264 17.9169 22.5469 16.4373 22.5469 14.6208C22.5469 12.8044 24.0264 11.3248 25.8429 11.3248C27.6594 11.3248 29.1389 12.8044 29.1389 14.6208C29.1389 16.4373 27.6594 17.9169 25.8429 17.9169ZM25.8429 13.5222C25.2423 13.5222 24.7442 14.0202 24.7442 14.6208C24.7442 15.2215 25.2423 15.7195 25.8429 15.7195C26.4435 15.7195 26.9416 15.2215 26.9416 14.6208C26.9416 14.0202 26.4435 13.5222 25.8429 13.5222Z" fill="black"/>
<defs>
<linearGradient id="paint0_linear_1_450" x1="33.2764" y1="7.77051" x2="4.31115" y2="35.9375" gradientUnits="userSpaceOnUse">
<stop stop-color="#FF3583"/>
<stop offset="1" stop-color="white" stop-opacity="0"/>
</linearGradient>
</defs>
</svg>
