<svg width="40" height="40" viewBox="0 0 40 40" fill="none" xmlns="http://www.w3.org/2000/svg">
<rect x="4.271" y="16.9607" width="31.5438" height="19.113" fill="url(#paint0_linear_1_419)"/>
<path d="M30 17.9165C29.3167 17.9165 28.75 17.3499 28.75 16.6665V13.3332C28.75 8.08319 27.2667 4.58319 20 4.58319C12.7333 4.58319 11.25 8.08319 11.25 13.3332V16.6665C11.25 17.3499 10.6833 17.9165 10 17.9165C9.31667 17.9165 8.75 17.3499 8.75 16.6665V13.3332C8.75 8.49986 9.91667 2.08319 20 2.08319C30.0833 2.08319 31.25 8.49986 31.25 13.3332V16.6665C31.25 17.3499 30.6833 17.9165 30 17.9165Z" fill="black"/>
<path d="M28.333 37.9168H11.6663C4.31634 37.9168 2.08301 35.6835 2.08301 28.3335V25.0001C2.08301 17.6501 4.31634 15.4168 11.6663 15.4168H28.333C35.683 15.4168 37.9163 17.6501 37.9163 25.0001V28.3335C37.9163 35.6835 35.683 37.9168 28.333 37.9168ZM11.6663 17.9168C5.69967 17.9168 4.58301 19.0501 4.58301 25.0001V28.3335C4.58301 34.2835 5.69967 35.4168 11.6663 35.4168H28.333C34.2997 35.4168 35.4163 34.2835 35.4163 28.3335V25.0001C35.4163 19.0501 34.2997 17.9168 28.333 17.9168H11.6663Z" fill="black"/>
<path d="M13.3337 28.333C13.117 28.333 12.9003 28.283 12.7003 28.1997C12.4837 28.1164 12.317 27.9997 12.1503 27.8497C11.8503 27.533 11.667 27.1164 11.667 26.6664C11.667 26.4497 11.717 26.233 11.8003 26.033C11.8836 25.8163 12.0003 25.6497 12.1503 25.483C12.317 25.333 12.4837 25.2163 12.7003 25.133C13.3003 24.8663 14.0503 25.0164 14.517 25.483C14.667 25.6497 14.7837 25.833 14.867 26.033C14.9503 26.233 15.0003 26.4497 15.0003 26.6664C15.0003 27.0997 14.817 27.533 14.517 27.8497C14.2003 28.1497 13.767 28.333 13.3337 28.333Z" fill="black"/>
<path d="M19.9997 28.3333C19.5663 28.3333 19.133 28.1499 18.8164 27.8499C18.5164 27.5333 18.333 27.1166 18.333 26.6666C18.333 26.45 18.3663 26.2333 18.4663 26.0333C18.5497 25.8333 18.6664 25.65 18.8164 25.4833C19.1997 25.1 19.783 24.9166 20.3163 25.0333C20.433 25.0499 20.533 25.0833 20.633 25.1333C20.733 25.1666 20.833 25.2166 20.933 25.2833C21.0163 25.3333 21.0997 25.4166 21.183 25.4833C21.333 25.65 21.4497 25.8333 21.533 26.0333C21.6164 26.2333 21.6663 26.45 21.6663 26.6666C21.6663 27.1166 21.483 27.5333 21.183 27.8499C21.0997 27.9166 21.0163 27.9833 20.933 28.0499C20.833 28.1166 20.733 28.1666 20.633 28.2C20.533 28.25 20.433 28.2833 20.3163 28.3C20.2163 28.3166 20.0997 28.3333 19.9997 28.3333Z" fill="black"/>
<path d="M26.6667 28.3333C26.2167 28.3333 25.8 28.1499 25.4833 27.8499C25.3333 27.6833 25.2166 27.5 25.1333 27.3C25.05 27.1 25 26.8833 25 26.6666C25 26.2333 25.1833 25.8 25.4833 25.4833C25.5667 25.4166 25.65 25.35 25.7333 25.2833C25.8333 25.2166 25.9333 25.1666 26.0333 25.1333C26.1333 25.0833 26.2333 25.0499 26.3333 25.0333C26.8833 24.9166 27.45 25.1 27.85 25.4833C28.15 25.8 28.3333 26.2166 28.3333 26.6666C28.3333 26.8833 28.2834 27.1 28.2 27.3C28.1167 27.5166 28 27.6833 27.85 27.8499C27.5333 28.1499 27.1 28.3333 26.6667 28.3333Z" fill="black"/>
<defs>
<linearGradient id="paint0_linear_1_419" x1="20.0429" y1="16.9607" x2="20.0429" y2="38.9711" gradientUnits="userSpaceOnUse">
<stop stop-color="#FF3583"/>
<stop offset="1" stop-color="white" stop-opacity="0"/>
</linearGradient>
</defs>
</svg>
