<svg width="41" height="40" viewBox="0 0 41 40" fill="none" xmlns="http://www.w3.org/2000/svg">
<rect x="5.02026" y="4.00092" width="31.6667" height="32.231" rx="3" fill="url(#paint0_linear_1_460)"/>
<path d="M37.2672 16.2494C36.5838 16.2494 36.0172 15.6827 36.0172 14.9994V11.666C36.0172 7.36604 33.2338 4.5827 28.9338 4.5827H12.2672C7.96717 4.5827 5.18384 7.36604 5.18384 11.666V14.9994C5.18384 15.6827 4.61717 16.2494 3.93384 16.2494C3.2505 16.2494 2.68384 15.6827 2.68384 14.9994V11.666C2.68384 5.9327 6.53384 2.0827 12.2672 2.0827H28.9338C34.6672 2.0827 38.5172 5.9327 38.5172 11.666V14.9994C38.5172 15.6827 37.9505 16.2494 37.2672 16.2494Z" fill="black"/>
<path d="M28.9338 37.9167H12.2672C6.53384 37.9167 2.68384 34.0667 2.68384 28.3333V25C2.68384 24.3167 3.2505 23.75 3.93384 23.75C4.61717 23.75 5.18384 24.3167 5.18384 25V28.3333C5.18384 32.6333 7.96717 35.4167 12.2672 35.4167H28.9338C33.2338 35.4167 36.0172 32.6333 36.0172 28.3333V25C36.0172 24.3167 36.5838 23.75 37.2672 23.75C37.9505 23.75 38.5172 24.3167 38.5172 25V28.3333C38.5172 34.0667 34.6672 37.9167 28.9338 37.9167Z" fill="black"/>
<path d="M37.2672 21.25H3.93384C3.2505 21.25 2.68384 20.6833 2.68384 20C2.68384 19.3167 3.2505 18.75 3.93384 18.75H37.2672C37.9505 18.75 38.5172 19.3167 38.5172 20C38.5172 20.6833 37.9505 21.25 37.2672 21.25Z" fill="black"/>
<defs>
<linearGradient id="paint0_linear_1_460" x1="20.8536" y1="4.00092" x2="20.8536" y2="41.118" gradientUnits="userSpaceOnUse">
<stop stop-color="#FF3583"/>
<stop offset="1" stop-color="white" stop-opacity="0"/>
</linearGradient>
</defs>
</svg>
